<?xml version="1.0" standalone="no"?>
<!DOCTYPE svg PUBLIC "-//W3C//DTD SVG 1.0//EN" "http://www.w3.org/TR/2001/REC-SVG-20010904/DTD/svg10.dtd">
<svg xmlns="http://www.w3.org/2000/svg" xmlns:xlink="http://www.w3.org/1999/xlink" id="body_1" width="245" height="136">

<g transform="matrix(0.26630434 0 0 0.26630434 -0 0.18478279)">
	<g transform="matrix(0.1 0 -0 -0.1 0 510)">
        <path d="M4493 5086C 4400 5057 4312 4962 4290 4868C 4254 4721 4328 4566 4465 4500C 4531 4468 4643 4467 4712 4497C 4772 4524 4845 4597 4872 4658C 4905 4732 4902 4850 4866 4923C 4799 5060 4637 5131 4493 5086z" stroke="none" fill="#000000" fill-rule="nonzero" />
        <path d="M6315 4346C 6172 4318 6008 4237 5911 4144C 5891 4125 5872 4110 5868 4110C 5863 4110 5860 4155 5860 4210L5860 4210L5860 4310L5620 4310L5380 4310L5380 3000L5380 1690L5620 1690L5860 1690L5860 2141L5860 2592L5913 2547C 6088 2398 6278 2331 6495 2343C 6721 2355 6899 2433 7063 2592C 7181 2707 7254 2817 7308 2965C 7407 3232 7386 3612 7260 3861C 7144 4089 6926 4269 6685 4335C 6603 4357 6404 4363 6315 4346zM6511 3894C 6695 3840 6834 3688 6875 3495C 6953 3124 6721 2791 6380 2787C 6191 2785 6041 2861 5941 3009C 5814 3196 5810 3492 5932 3682C 5993 3778 6111 3864 6221 3894C 6295 3914 6443 3914 6511 3894z" stroke="none" fill="#000000" fill-rule="nonzero" />
        <path d="M2005 4291C 2008 4280 2062 4153 2124 4008C 2186 3864 2367 3440 2526 3067L2526 3067L2815 2390L2973 2392L3132 2395L3275 2730C 3353 2914 3536 3342 3680 3680C 3824 4018 3944 4298 3947 4303C 3949 4307 3840 4310 3703 4310L3703 4310L3455 4310L3296 3937C 3209 3733 3101 3481 3057 3378C 3013 3275 2974 3193 2970 3195C 2966 3198 2948 3235 2931 3277C 2914 3320 2808 3569 2696 3830L2696 3830L2493 4305L2246 4308C 2006 4310 1999 4310 2005 4291z" stroke="none" fill="#000000" fill-rule="nonzero" />
        <path d="M4347 4303C 4343 4300 4340 3868 4340 3343L4340 3343L4340 2390L4585 2390L4830 2390L4830 3350L4830 4310L4592 4310C 4461 4310 4350 4307 4347 4303z" stroke="none" fill="#000000" fill-rule="nonzero" />
        <path d="M2302 1265C 2195 1204 2052 1066 1868 845C 1717 665 1539 513 1441 480C 1396 466 1387 450 1423 450C 1472 451 1578 515 1680 608C 1705 630 1726 647 1727 646C 1728 645 1723 626 1715 605C 1693 543 1696 503 1726 473C 1750 449 1755 448 1822 455C 1879 460 1913 471 1992 511L1992 511L2090 560L2090 521C 2090 455 2130 432 2227 444C 2298 452 2336 469 2426 530L2426 530L2500 580L2494 537C 2479 433 2579 433 2694 539C 2718 561 2722 562 2715 545C 2701 509 2698 463 2710 455C 2737 438 2822 449 2873 476C 2929 505 3049 591 3114 649C 3195 721 3203 724 3155 665C 3102 598 3080 555 3080 512C 3080 443 3136 442 3226 511C 3265 540 3289 554 3285 543C 3256 475 3276 445 3348 448C 3404 450 3478 486 3557 549C 3753 706 3756 708 3733 670C 3663 555 3644 486 3676 459C 3701 439 3767 446 3827 476C 3882 502 4050 629 4123 698C 4170 743 4171 735 4124 679C 4061 603 4033 530 4050 486C 4070 432 4148 462 4264 570C 4323 625 4321 614 4255 527C 4213 472 4197 459 4155 445C 4075 418 3993 363 3914 282C 3806 173 3757 65 3793 16C 3805 0 3811 -1 3842 9C 3914 33 3995 112 4184 343C 4249 423 4267 440 4290 440C 4305 440 4323 446 4329 454C 4339 466 4336 469 4314 472L4314 472L4288 475L4336 540C 4363 576 4426 655 4477 717C 4528 778 4570 833 4570 839C 4570 845 4562 854 4551 859C 4536 868 4508 844 4364 701C 4215 553 4137 490 4100 490C 4063 490 4126 594 4241 720C 4314 799 4323 822 4289 840C 4264 854 4255 849 4135 745C 3986 617 3868 529 3805 499C 3689 443 3678 467 3763 593C 3798 643 3866 735 3914 795L3914 795L4002 905L4091 911C 4140 914 4183 920 4187 923C 4201 938 4176 944 4109 942L4109 942L4038 939L4059 967C 4109 1031 4160 1114 4160 1132C 4160 1162 4125 1153 4089 1112C 4055 1074 3974 978 3955 954C 3949 946 3897 937 3810 930C 3662 918 3640 914 3640 898C 3640 890 3679 889 3770 893C 3842 897 3900 897 3900 894C 3900 849 3497 519 3401 485C 3285 445 3297 494 3440 660C 3529 762 3542 784 3526 805C 3507 831 3490 818 3348 668C 3232 545 3160 486 3145 502C 3134 512 3167 571 3217 633C 3357 803 3361 812 3302 818C 3274 821 3259 812 3197 757C 3096 667 2928 536 2878 506C 2826 476 2765 463 2755 480C 2751 486 2773 523 2807 565C 2839 606 2886 667 2913 700C 2959 759 2973 800 2948 800C 2941 800 2929 796 2922 791C 2913 786 2900 791 2885 806C 2866 825 2855 828 2823 823C 2759 813 2697 775 2537 649C 2386 530 2288 470 2244 470C 2232 470 2209 474 2195 480C 2172 489 2169 495 2172 527C 2175 562 2178 565 2274 613C 2433 693 2503 776 2453 825C 2431 847 2371 838 2310 803C 2253 770 2138 659 2114 614C 2104 596 2089 580 2080 580C 2072 580 2037 564 2003 546C 1968 527 1940 514 1940 517C 1940 519 1956 538 1976 558C 2021 604 2060 669 2070 716C 2087 789 2044 839 1978 825C 1963 821 1950 821 1950 823C 1950 826 1978 845 2013 866C 2105 921 2259 1037 2304 1084C 2407 1194 2432 1291 2357 1290C 2350 1290 2326 1279 2302 1265zM2358 1197C 2325 1136 2207 1024 2106 956C 2058 924 2017 900 2014 903C 2007 910 2277 1187 2324 1221C 2345 1237 2367 1247 2371 1244C 2376 1241 2370 1220 2358 1197zM2874 784C 2877 775 2871 753 2860 736C 2840 702 2729 593 2671 550C 2653 536 2633 520 2626 514C 2609 498 2572 488 2560 495C 2529 514 2693 703 2799 771C 2850 804 2865 807 2874 784zM1877 693C 1877 666 1883 651 1903 634C 1918 621 1930 607 1930 602C 1930 597 1906 570 1876 542C 1815 485 1777 469 1753 493C 1739 507 1740 514 1763 563C 1784 610 1864 730 1874 730C 1875 730 1877 714 1877 693zM4134 368C 4096 314 3980 172 3926 112C 3889 72 3834 36 3820 45C 3788 65 3834 168 3912 251C 3993 337 4108 414 4163 419C 4168 420 4155 396 4134 368z" stroke="none" fill="#000000" fill-rule="nonzero" />
        <path d="M5610 1263C 5527 1229 5265 970 5121 778C 5061 697 4779 490 4710 475C 4662 464 4660 446 4708 452C 4756 459 4843 509 4958 597C 5003 632 5042 660 5044 660C 5046 660 5037 634 5024 603C 4996 535 4993 478 5016 459C 5039 440 5115 446 5165 471C 5188 483 5246 521 5294 556C 5341 591 5380 617 5380 614C 5380 611 5373 595 5364 578C 5342 535 5344 470 5367 452C 5394 432 5501 445 5563 477C 5619 505 5694 558 5785 635C 5879 714 5888 719 5842 664C 5756 559 5743 460 5815 460C 5849 460 5922 506 5964 553C 5982 574 5983 574 5976 555C 5946 474 5960 450 6035 450C 6105 450 6153 477 6318 608C 6486 742 6505 755 6454 699C 6375 613 6300 513 6300 491C 6300 444 6330 457 6423 546C 6561 678 6727 796 6746 777C 6750 773 6715 730 6667 681C 6620 632 6572 573 6560 550C 6520 471 6555 432 6650 450C 6711 462 6724 468 6823 537C 6887 582 6901 588 6895 570C 6884 535 6883 505 6891 482C 6898 465 6907 460 6935 460C 6979 460 7018 480 7071 527C 7120 571 7121 562 7074 505C 7046 470 7027 458 6982 445C 6821 398 6693 320 6610 217C 6535 125 6521 56 6571 29C 6650 -13 6838 118 7030 348C 7102 434 7107 438 7155 445C 7183 449 7244 473 7297 501C 7348 528 7395 550 7400 550C 7406 550 7410 537 7410 521C 7410 461 7471 429 7554 444C 7598 452 7602 470 7560 470C 7518 470 7486 504 7495 538C 7499 553 7507 567 7513 569C 7552 583 7695 662 7731 690C 7804 748 7816 821 7755 836C 7685 853 7523 744 7450 629C 7432 602 7412 580 7405 580C 7398 580 7344 555 7285 525C 7189 476 7140 459 7140 476C 7140 479 7166 514 7199 553C 7301 678 7360 762 7360 781C 7360 802 7331 807 7313 789C 7306 782 7298 787 7286 804C 7245 867 7147 825 6926 651C 6865 603 6790 547 6760 527C 6659 461 6574 453 6613 513C 6622 527 6669 579 6719 630C 6813 726 6833 760 6819 798C 6802 844 6705 813 6588 723C 6556 699 6530 683 6530 688C 6530 693 6537 703 6544 710C 6552 716 6573 744 6591 772C 6622 821 6623 823 6605 836C 6595 844 6584 850 6581 850C 6568 850 6518 811 6429 733C 6215 545 6052 444 6019 477C 6002 494 6015 519 6081 600C 6114 641 6159 697 6181 723C 6223 775 6230 807 6204 817C 6192 822 6146 781 6036 668C 5898 526 5850 487 5832 505C 5820 516 5870 595 5936 671C 6036 783 6047 814 5992 825C 5977 828 5954 815 5918 784C 5712 610 5562 495 5553 503C 5551 506 5559 516 5572 524C 5608 547 5697 660 5720 711C 5754 787 5744 822 5686 822C 5666 822 5643 817 5635 810C 5625 801 5616 801 5600 810C 5581 820 5570 815 5507 762C 5226 530 5150 479 5085 476C 5058 475 5055 478 5057 504C 5060 540 5130 658 5172 699C 5190 716 5252 768 5310 814C 5552 1009 5687 1164 5678 1238C 5676 1259 5669 1265 5650 1267C 5636 1268 5618 1266 5610 1263zM5650 1227C 5650 1171 5530 1038 5317 856C 5222 775 5211 770 5250 824C 5324 927 5583 1213 5624 1237C 5651 1253 5650 1254 5650 1227zM7270 776C 7270 741 7211 672 7098 578C 6998 493 6950 472 6950 511C 6950 574 7182 800 7247 800C 7265 800 7270 795 7270 776zM5556 678C 5557 657 5566 639 5584 625L5584 625L5610 604L5557 553C 5475 472 5420 461 5420 525C 5420 561 5467 634 5523 683C 5540 698 5554 710 5555 710C 5555 710 5556 696 5556 678zM6989 398C 6969 361 6718 115 6665 81C 6599 39 6575 42 6576 93C 6577 121 6587 142 6617 178C 6690 263 6836 364 6950 406C 6999 424 7002 423 6989 398z" stroke="none" fill="#000000" fill-rule="nonzero" />
	</g>
</g>
</svg>
